<svg xmlns="http://www.w3.org/2000/svg" viewBox="0 0 610.59 148.86"><defs><style>.a{fill:#fff;}</style></defs><title>PROTECT Logo 2020 HORZ WHT</title><path class="a" d="M76.1,102.2A15.55,15.55,0,1,1,60.54,86.64,15.55,15.55,0,0,1,76.1,102.2v0"></path><path class="a" d="M69.87,139.55a9.33,9.33,0,1,1-9.33-9.35,9.33,9.33,0,0,1,9.33,9.35v0"></path><path class="a" d="M97.88,129.82a5.6,5.6,0,1,1-5.6-5.6,5.6,5.6,0,0,1,5.6,5.6"></path><path class="a" d="M119.32,120.94a3.36,3.36,0,1,1-3.36-3.36h0a3.36,3.36,0,0,1,3.36,3.36"></path><path class="a" d="M121.56,92.62A5.6,5.6,0,1,1,116,87a5.6,5.6,0,0,1,5.6,5.6"></path><path class="a" d="M119.32,64.31A3.36,3.36,0,1,1,116,61h0a3.36,3.36,0,0,1,3.36,3.36"></path><path class="a" d="M118.2,40A2.24,2.24,0,1,1,116,37.75h0A2.24,2.24,0,0,1,118.24,40"></path><path class="a" d="M101.61,97.05a9.33,9.33,0,1,1-9.33-9.33,9.33,9.33,0,0,1,9.33,9.33"></path><path class="a" d="M97.88,64.29a5.6,5.6,0,1,1-5.6-5.6,5.6,5.6,0,0,1,5.6,5.6"></path><path class="a" d="M96,36.53a3.73,3.73,0,1,1-3.73-3.73A3.73,3.73,0,0,1,96,36.53"></path><path class="a" d="M34.59,129.82A5.6,5.6,0,1,1,29,124.2a5.6,5.6,0,0,1,5.59,5.62h0"></path><path class="a" d="M9,120.94a3.36,3.36,0,1,1-3.4-3.36A3.36,3.36,0,0,1,9,120.94v0"></path><path class="a" d="M11.2,92.62A5.6,5.6,0,1,1,5.6,87a5.6,5.6,0,0,1,5.6,5.6"></path><path class="a" d="M9,64.31A3.36,3.36,0,1,1,5.6,61,3.36,3.36,0,0,1,9,64.31v0"></path><path class="a" d="M7.84,40A2.24,2.24,0,1,1,5.6,37.75,2.24,2.24,0,0,1,7.84,40"></path><path class="a" d="M38.32,97.05A9.33,9.33,0,1,1,29,87.72h0a9.33,9.33,0,0,1,9.33,9.33"></path><path class="a" d="M34.59,64.29a5.6,5.6,0,1,1-5.6-5.6,5.6,5.6,0,0,1,5.6,5.6"></path><path class="a" d="M32.72,36.53A3.73,3.73,0,1,1,29,32.79a3.73,3.73,0,0,1,3.72,3.74"></path><path class="a" d="M69.87,64.31A9.33,9.33,0,1,1,60.54,55a9.33,9.33,0,0,1,9.33,9.33"></path><path class="a" d="M66.76,33.42a6.22,6.22,0,1,1-6.22-6.22,6.22,6.22,0,0,1,6.22,6.22"></path><path class="a" d="M118.2,17.79A2.24,2.24,0,1,1,116,15.55h0a2.24,2.24,0,0,1,2.24,2.24"></path><path class="a" d="M96,11.33A3.73,3.73,0,1,1,92.27,7.6,3.73,3.73,0,0,1,96,11.33"></path><path class="a" d="M7.84,17.79A2.24,2.24,0,1,1,5.6,15.55a2.24,2.24,0,0,1,2.24,2.24"></path><path class="a" d="M32.72,11.33A3.73,3.73,0,1,1,29,7.59a3.73,3.73,0,0,1,3.72,3.74"></path><path class="a" d="M66.76,6.22A6.22,6.22,0,1,1,60.54,0a6.22,6.22,0,0,1,6.22,6.22"></path><path class="a" d="M157.61,34.36h27.58c16.14,0,25.86,9.54,25.86,23.33v.19c0,15.65-12.15,23.78-27.32,23.78H172.52v20.2H157.61Zm26.65,33.95c7.45,0,11.78-4.43,11.78-10.21v-.19c0-6.67-4.62-10.21-12.08-10.21H172.52V68.31Z"></path><path class="a" d="M220.56,34.36h30.9a26.91,26.91,0,0,1,19.67,6.86,21.18,21.18,0,0,1,5.74,15.43v.18a21,21,0,0,1-14.46,20.95L279,101.86h-17.4l-14.5-21.58H235.43v21.58H220.52Zm29.82,32.8c7.23,0,11.41-3.73,11.41-9.54v-.18c0-6.37-4.43-9.65-11.67-9.65H235.21V67.16Z"></path><path class="a" d="M285,68.31v-.19a34.92,34.92,0,0,1,34.91-34.94H321a34.62,34.62,0,0,1,35.79,33.41c0,.44,0,.88,0,1.32v.19A34.93,34.93,0,0,1,322,103.07l-1.1,0a34.63,34.63,0,0,1-35.8-33.41c0-.44,0-.88,0-1.32m56.28,0v-.19A20.53,20.53,0,0,0,321.5,46.9l-.64,0A20.2,20.2,0,0,0,300.56,67c0,.31,0,.61,0,.91v.18a20.46,20.46,0,0,0,19.75,21.16H321a20.16,20.16,0,0,0,20.29-20c0-.3,0-.6,0-.91"></path><polygon class="a" points="381.9 48.04 361.36 48.04 361.36 34.36 417.27 34.36 417.27 48.04 396.77 48.04 396.77 101.85 381.86 101.85 381.9 48.04"></polygon><polygon class="a" points="425.95 34.36 477.05 34.36 477.05 47.59 440.86 47.59 440.86 61.3 472.69 61.3 472.69 74.5 440.86 74.5 440.86 88.74 477.5 88.74 477.5 101.85 425.95 101.85 425.95 34.36"></polygon><path class="a" d="M485.78,68.31v-.19A34.32,34.32,0,0,1,519.49,33.2H521a34.85,34.85,0,0,1,26.65,10.44l-9.47,10.89a24.88,24.88,0,0,0-17.26-7.45,20,20,0,0,0-19.63,20.39c0,.22,0,.45,0,.67v.19c0,11.59,8,21.24,19.6,21.24a24.32,24.32,0,0,0,17.74-7.94l9.47,9.54a34.53,34.53,0,0,1-27.73,12.07,34.1,34.1,0,0,1-34.63-33.57c0-.45,0-.91,0-1.36"></path><polygon class="a" points="575.26 48.04 554.68 48.04 554.68 34.36 610.59 34.36 610.59 48.04 589.94 48.04 589.94 101.85 575.03 101.85 575.26 48.04"></polygon></svg>